<?xml version="1.0"?>
<svg version="1.1" xmlns="http://www.w3.org/2000/svg" width="180" height="45" style=""><path fill="#6e5007" d="M16.0458984375,23.5458984375q0-0.6474609375,0.04150390625-1.90087890625t0.12451171875-2.61474609375t0.2158203125-2.54833984375t0.3818359375-1.70166015625q0.1328125-0.265625,0.40673828125-0.35693359375t0.53955078125-0.09130859375q0.166015625,0,0.55615234375,0.09130859375t0.39013671875,0.35693359375q0,0.4150390625-0.099609375,1.56884765625t-0.1826171875,2.64794921875t-0.1162109375,3.1044921875l0,0.7138671875q0,1.2119140625,0.0830078125,2.2744140625q0.1162109375,1.361328125,0.43994140625,2.2412109375t0.97119140625,0.8798828125q0.8798828125,0,1.6435546875-0.52294921875t1.39453125-1.361328125t1.13720703125-1.8759765625t0.86328125-2.0419921875t0.59765625-1.85107421875t0.34033203125-1.328125q0.099609375-0.5478515625,0.17431640625-1.4609375t0.24072265625-1.79296875t0.58935546875-1.52734375t1.23681640625-0.6474609375q0.4814453125,0,0.92138671875,0.166015625t0.57275390625,0.7138671875q-0.265625,1.0126953125-0.4482421875,2.81396484375t-0.29052734375,3.77685546875t-0.15771484375,3.82666015625t-0.0498046875,3.01318359375q0,1.294921875,0.033203125,3.16259765625t0.1162109375,3.85986328125t0.19091796875,3.87646484375t0.24072265625,3.14599609375q0.1328125,0.265625,0.1328125,0.6142578125q0,0.4150390625-0.166015625,0.6474609375t-0.45654296875,0.3486328125t-0.630859375,0.1494140625t-0.65576171875,0.033203125q-0.4814453125,0-1.07080078125-0.166015625t-0.72216796875-0.6806640625q-0.166015625-0.6142578125-0.27392578125-1.61865234375t-0.15771484375-2.19140625t-0.0830078125-2.48193359375t-0.033203125-2.48193359375t0.0166015625-2.2080078125t0.0166015625-1.66845703125q0-1.26171875,0.0498046875-2.48193359375t0.1162109375-2.48193359375q-0.4150390625,0.8466796875-0.97119140625,1.71826171875t-1.27001953125,1.58544921875t-1.59375,1.17041015625t-1.9091796875,0.45654296875q-1.328125,0-2.025390625-0.7138671875t-1.0126953125-1.76806640625t-0.35693359375-2.2412109375t-0.04150390625-2.14990234375z M32.807998046875,39.1181640625q0-0.099609375,0.06640625-0.70556640625t0.17431640625-1.4775390625t0.24072265625-1.8759765625t0.232421875-1.90087890625t0.17431640625-1.5771484375t0.07470703125-0.9130859375q-0.1328125-0.06640625-0.32373046875-0.19091796875t-0.19091796875-0.29052734375q0-0.232421875,0.22412109375-0.37353515625t0.39013671875-0.20751953125q0.06640625-0.8466796875,0.166015625-2.357421875t0.30712890625-3.26220703125t0.5810546875-3.552734375t0.98779296875-3.2705078125t1.4775390625-2.39892578125t2.125-0.9296875t2.091796875,0.796875t1.35302734375,2.0751953125t0.796875,2.8388671875t0.4150390625,3.1044921875t0.17431640625,2.888671875t0.06640625,2.158203125q0.033203125,0.5146484375,0.2490234375,0.68896484375t0.47314453125,0.24072265625t0.46484375,0.1494140625t0.20751953125,0.4150390625q0,0.3818359375-0.46484375,0.53125t-0.73046875,0.1826171875q0.166015625,2.0751953125,0.45654296875,4.083984375t0.77197265625,4.05078125q0.06640625,0.3818359375,0.1826171875,0.77197265625t0.1162109375,0.75537109375q0,0.265625-0.1826171875,0.43994140625t-0.47314453125,0.27392578125t-0.5810546875,0.1328125t-0.48974609375,0.033203125q-0.7470703125,0-1.26171875-0.2822265625t-0.6806640625-1.0791015625q-0.4482421875-2.1416015625-0.8798828125-4.4990234375q-0.365234375-2.0419921875-0.365234375-3.9677734375q0-0.298828125,0.0166015625-0.59765625q-1.39453125,0-2.8056640625,0.06640625t-2.7060546875,0.498046875q-0.033203125,0.4482421875-0.166015625,1.693359375t-0.298828125,2.6728515625t-0.34033203125,2.73095703125t-0.20751953125,1.85107421875q-0.033203125,0.232421875-0.34033203125,0.43994140625t-0.6640625,0.22412109375t-0.630859375-0.22412109375t-0.27392578125-0.85498046875z M35.912490234375,29.0576171875q1.294921875-0.298828125,2.59814453125-0.3486328125t2.63134765625-0.1162109375q-0.06640625-0.4150390625-0.033203125-0.85498046875t0.033203125-0.88818359375q0-0.9794921875-0.0498046875-2.2744140625t-0.1494140625-2.623046875t-0.25732421875-2.61474609375t-0.35693359375-2.291015625t-0.42333984375-1.60205078125t-0.48974609375-0.59765625q-0.5146484375,0.033203125-0.97119140625,0.88818359375t-0.830078125,2.1748046875t-0.6806640625,2.955078125t-0.5146484375,3.19580078125t-0.34033203125,2.9052734375t-0.166015625,2.091796875z M49.53689453125,17.7685546875q0-0.19921875,0.19091796875-0.298828125t0.4150390625-0.1494140625t0.40673828125-0.0498046875l0.1826171875,0q0.5810546875,0,0.83837890625,0.265625t0.62255859375,0.6806640625q2.490234375,3.6025390625,4.5654296875,7.41259765625t4.0009765625,7.71142578125q0.166015625-4.548828125,0.34033203125-9.15576171875t0.43994140625-9.13916015625q0-0.19921875,0.19091796875-0.33203125t0.431640625-0.19921875t0.48974609375-0.0830078125t0.3818359375-0.0166015625q0.19921875,0,0.43994140625,0.0166015625t0.4814453125,0.099609375t0.3984375,0.19921875t0.15771484375,0.3154296875q0.06640625,0.7138671875,0.07470703125,1.43603515625t0.00830078125,1.43603515625q0,5.345703125-0.232421875,10.4755859375t-0.232421875,10.359375l0,1.1953125q0,0.06640625-0.06640625,0.19921875q0.033203125,0.1328125,0.099609375,0.29052734375t0.06640625,0.22412109375q0,0.265625-0.27392578125,0.3984375t-0.59765625,0.20751953125t-0.57275390625,0.07470703125t-0.1826171875,0q-0.8466796875,0-1.427734375-0.46484375t-0.5810546875-1.1123046875q-1.228515625-2.755859375-2.44873046875-5.47021484375t-2.54833984375-5.40380859375q-0.8466796875-1.693359375-1.70166015625-3.39501953125t-1.83447265625-3.29541015625q0.033203125,0.033203125,0.033203125,0.099609375q0.166015625,1.66015625,0.35693359375,3.31201171875t0.29052734375,3.31201171875q0.06640625,1.427734375,0.1494140625,2.888671875t0.265625,2.888671875q0,0.5478515625-0.34033203125,0.697265625t-0.78857421875,0.1494140625q-0.3818359375,0-0.72216796875-0.099609375t-0.40673828125-0.498046875q0-1.52734375-0.1162109375-3.24560546875t-0.2158203125-3.46142578125q-0.166015625-2.3076171875-0.43994140625-4.68994140625t-0.27392578125-4.65673828125q0-0.099609375,0.0166015625-0.20751953125t0.0166015625-0.24072265625q-0.099609375-0.166015625-0.22412109375-0.3486328125t-0.12451171875-0.33203125z M68.008955078125,23.5458984375q0-0.6474609375,0.04150390625-1.90087890625t0.12451171875-2.61474609375t0.2158203125-2.54833984375t0.3818359375-1.70166015625q0.1328125-0.265625,0.40673828125-0.35693359375t0.53955078125-0.09130859375q0.166015625,0,0.55615234375,0.09130859375t0.39013671875,0.35693359375q0,0.4150390625-0.099609375,1.56884765625t-0.1826171875,2.64794921875t-0.1162109375,3.1044921875l0,0.7138671875q0,1.2119140625,0.0830078125,2.2744140625q0.1162109375,1.361328125,0.43994140625,2.2412109375t0.97119140625,0.8798828125q0.8798828125,0,1.6435546875-0.52294921875t1.39453125-1.361328125t1.13720703125-1.8759765625t0.86328125-2.0419921875t0.59765625-1.85107421875t0.34033203125-1.328125q0.099609375-0.5478515625,0.17431640625-1.4609375t0.24072265625-1.79296875t0.58935546875-1.52734375t1.23681640625-0.6474609375q0.4814453125,0,0.92138671875,0.166015625t0.57275390625,0.7138671875q-0.265625,1.0126953125-0.4482421875,2.81396484375t-0.29052734375,3.77685546875t-0.15771484375,3.82666015625t-0.0498046875,3.01318359375q0,1.294921875,0.033203125,3.16259765625t0.1162109375,3.85986328125t0.19091796875,3.87646484375t0.24072265625,3.14599609375q0.1328125,0.265625,0.1328125,0.6142578125q0,0.4150390625-0.166015625,0.6474609375t-0.45654296875,0.3486328125t-0.630859375,0.1494140625t-0.65576171875,0.033203125q-0.4814453125,0-1.07080078125-0.166015625t-0.72216796875-0.6806640625q-0.166015625-0.6142578125-0.27392578125-1.61865234375t-0.15771484375-2.19140625t-0.0830078125-2.48193359375t-0.033203125-2.48193359375t0.0166015625-2.2080078125t0.0166015625-1.66845703125q0-1.26171875,0.0498046875-2.48193359375t0.1162109375-2.48193359375q-0.4150390625,0.8466796875-0.97119140625,1.71826171875t-1.27001953125,1.58544921875t-1.59375,1.17041015625t-1.9091796875,0.45654296875q-1.328125,0-2.025390625-0.7138671875t-1.0126953125-1.76806640625t-0.35693359375-2.2412109375t-0.04150390625-2.14990234375z M84.7710546875,39.1181640625q0-0.099609375,0.06640625-0.70556640625t0.17431640625-1.4775390625t0.24072265625-1.8759765625t0.232421875-1.90087890625t0.17431640625-1.5771484375t0.07470703125-0.9130859375q-0.1328125-0.06640625-0.32373046875-0.19091796875t-0.19091796875-0.29052734375q0-0.232421875,0.22412109375-0.37353515625t0.39013671875-0.20751953125q0.06640625-0.8466796875,0.166015625-2.357421875t0.30712890625-3.26220703125t0.5810546875-3.552734375t0.98779296875-3.2705078125t1.4775390625-2.39892578125t2.125-0.9296875t2.091796875,0.796875t1.35302734375,2.0751953125t0.796875,2.8388671875t0.4150390625,3.1044921875t0.17431640625,2.888671875t0.06640625,2.158203125q0.033203125,0.5146484375,0.2490234375,0.68896484375t0.47314453125,0.24072265625t0.46484375,0.1494140625t0.20751953125,0.4150390625q0,0.3818359375-0.46484375,0.53125t-0.73046875,0.1826171875q0.166015625,2.0751953125,0.45654296875,4.083984375t0.77197265625,4.05078125q0.06640625,0.3818359375,0.1826171875,0.77197265625t0.1162109375,0.75537109375q0,0.265625-0.1826171875,0.43994140625t-0.47314453125,0.27392578125t-0.5810546875,0.1328125t-0.48974609375,0.033203125q-0.7470703125,0-1.26171875-0.2822265625t-0.6806640625-1.0791015625q-0.4482421875-2.1416015625-0.8798828125-4.4990234375q-0.365234375-2.0419921875-0.365234375-3.9677734375q0-0.298828125,0.0166015625-0.59765625q-1.39453125,0-2.8056640625,0.06640625t-2.7060546875,0.498046875q-0.033203125,0.4482421875-0.166015625,1.693359375t-0.298828125,2.6728515625t-0.34033203125,2.73095703125t-0.20751953125,1.85107421875q-0.033203125,0.232421875-0.34033203125,0.43994140625t-0.6640625,0.22412109375t-0.630859375-0.22412109375t-0.27392578125-0.85498046875z M87.875546875,29.0576171875q1.294921875-0.298828125,2.59814453125-0.3486328125t2.63134765625-0.1162109375q-0.06640625-0.4150390625-0.033203125-0.85498046875t0.033203125-0.88818359375q0-0.9794921875-0.0498046875-2.2744140625t-0.1494140625-2.623046875t-0.25732421875-2.61474609375t-0.35693359375-2.291015625t-0.42333984375-1.60205078125t-0.48974609375-0.59765625q-0.5146484375,0.033203125-0.97119140625,0.88818359375t-0.830078125,2.1748046875t-0.6806640625,2.955078125t-0.5146484375,3.19580078125t-0.34033203125,2.9052734375t-0.166015625,2.091796875z M101.49995117187,17.7685546875q0-0.19921875,0.19091796875-0.298828125t0.4150390625-0.1494140625t0.40673828125-0.0498046875l0.1826171875,0q0.5810546875,0,0.83837890625,0.265625t0.62255859375,0.6806640625q2.490234375,3.6025390625,4.5654296875,7.41259765625t4.0009765625,7.71142578125q0.166015625-4.548828125,0.34033203125-9.15576171875t0.43994140625-9.13916015625q0-0.19921875,0.19091796875-0.33203125t0.431640625-0.19921875t0.48974609375-0.0830078125t0.3818359375-0.0166015625q0.19921875,0,0.43994140625,0.0166015625t0.4814453125,0.099609375t0.3984375,0.19921875t0.15771484375,0.3154296875q0.06640625,0.7138671875,0.07470703125,1.43603515625t0.00830078125,1.43603515625q0,5.345703125-0.232421875,10.4755859375t-0.232421875,10.359375l0,1.1953125q0,0.06640625-0.06640625,0.19921875q0.033203125,0.1328125,0.099609375,0.29052734375t0.06640625,0.22412109375q0,0.265625-0.27392578125,0.3984375t-0.59765625,0.20751953125t-0.57275390625,0.07470703125t-0.1826171875,0q-0.8466796875,0-1.427734375-0.46484375t-0.5810546875-1.1123046875q-1.228515625-2.755859375-2.44873046875-5.47021484375t-2.54833984375-5.40380859375q-0.8466796875-1.693359375-1.70166015625-3.39501953125t-1.83447265625-3.29541015625q0.033203125,0.033203125,0.033203125,0.099609375q0.166015625,1.66015625,0.35693359375,3.31201171875t0.29052734375,3.31201171875q0.06640625,1.427734375,0.1494140625,2.888671875t0.265625,2.888671875q0,0.5478515625-0.34033203125,0.697265625t-0.78857421875,0.1494140625q-0.3818359375,0-0.72216796875-0.099609375t-0.40673828125-0.498046875q0-1.52734375-0.1162109375-3.24560546875t-0.2158203125-3.46142578125q-0.166015625-2.3076171875-0.43994140625-4.68994140625t-0.27392578125-4.65673828125q0-0.099609375,0.0166015625-0.20751953125t0.0166015625-0.24072265625q-0.099609375-0.166015625-0.22412109375-0.3486328125t-0.12451171875-0.33203125z M119.97201171875,25.35546875q0-1.095703125,0.09130859375-2.39892578125t0.32373046875-2.61474609375t0.697265625-2.53173828125t1.1953125-2.1748046875t1.78466796875-1.51904296875t2.51513671875-0.564453125q1.162109375,0,2.1416015625,0.4482421875t1.7099609375,1.2119140625t1.13720703125,1.78466796875t0.40673828125,2.13330078125q0,0.298828125-0.40673828125,0.37353515625t-0.57275390625,0.07470703125q-0.298828125,0-0.57275390625-0.0498046875t-0.40673828125-0.3984375q-0.232421875-0.6474609375-0.48974609375-1.361328125t-0.630859375-1.30322265625t-0.92138671875-0.97119140625q-0.498046875-0.33203125-1.26171875-0.33203125l-0.1328125,0q-1.39453125,0.033203125-2.0751953125,0.99609375t-0.93798828125,2.3408203125t-0.25732421875,2.921875l0,2.7392578125q0,0.6806640625,0.0498046875,1.9755859375t0.24072265625,2.822265625t0.498046875,3.11279296875t0.830078125,2.888671875t1.25341796875,2.125t1.759765625,0.82177734375q0.9130859375,0,1.59375-0.630859375t1.17041015625-1.61865234375t0.830078125-2.2080078125t0.564453125-2.44873046875t0.34033203125-2.28271484375t0.1826171875-1.73486328125q-0.1826171875-0.0166015625-0.3486328125-0.0166015625q-0.7802734375,0-1.52734375,0.2490234375q-0.9462890625,0.2822265625-1.892578125,0.2822265625q-0.1328125,0-0.35693359375-0.0166015625t-0.42333984375-0.0830078125t-0.35693359375-0.19091796875t-0.15771484375-0.32373046875q0-0.3818359375,0.83837890625-0.6474609375t1.9091796875-0.45654296875t2.06689453125-0.27392578125t1.3115234375-0.0830078125q0.166015625,0,0.47314453125,0.033203125t0.6142578125,0.1162109375t0.52294921875,0.24072265625t0.2158203125,0.39013671875q0,0.19921875-0.1494140625,0.35693359375t-0.37353515625,0.24072265625t-0.45654296875,0.1162109375t-0.365234375,0.033203125q0.0166015625,0.3818359375,0.0166015625,0.7802734375q0,0.896484375-0.0498046875,1.9091796875q-0.0830078125,1.4609375-0.33203125,2.921875t-0.763671875,2.8388671875t-1.3115234375,2.43212890625t-1.96728515625,1.70166015625t-2.78076171875,0.6474609375q-1.759765625,0-2.9716796875-0.7470703125t-1.9755859375-1.9921875t-1.18701171875-2.822265625t-0.60595703125-3.22900390625t-0.22412109375-3.21240234375t-0.04150390625-2.822265625z M138.90891601562,39.267578125q0.06640625-3.4697265625,0.29052734375-6.9228515625t0.39013671875-6.9228515625q0.033203125-1.328125,0.033203125-2.41552734375t0.10791015625-1.88427734375t0.3984375-1.22021484375t0.97119140625-0.42333984375q0.5810546875,0,0.8798828125,0.166015625t0.45654296875,0.42333984375t0.19091796875,0.5810546875t0.033203125,0.65576171875q0,0.4814453125,0.033203125,0.95458984375t0.033203125,0.95458984375q0,3.5029296875-0.19091796875,6.9892578125t-0.19091796875,7.0224609375q0,0.5146484375,0.0166015625,1.03759765625t0.0166015625,1.07080078125q0,0.19921875-0.1826171875,0.33203125t-0.45654296875,0.22412109375t-0.5810546875,0.12451171875t-0.50634765625,0.033203125q-0.232421875,0-0.52294921875-0.033203125t-0.564453125-0.14111328125t-0.46484375-0.25732421875t-0.19091796875-0.3486328125z M139.83860351562,16.755859375q0-0.166015625,0.0498046875-0.37353515625t0.1162109375-0.37353515625q0.033203125-0.19921875,0.099609375-0.6806640625t0.24072265625-0.93798828125t0.4814453125-0.8134765625t0.87158203125-0.35693359375l0.3154296875,0q0.265625,0.06640625,0.53955078125,0.166015625t0.27392578125,0.4814453125q0,0.166015625-0.0166015625,0.3154296875t-0.0498046875,0.33203125q-0.1328125,0.9794921875-0.25732421875,1.5439453125t-0.29052734375,0.85498046875t-0.42333984375,0.37353515625t-0.65576171875,0.1162109375q-0.1328125,0-0.35693359375-0.0166015625t-0.431640625-0.0830078125t-0.35693359375-0.20751953125t-0.1494140625-0.34033203125z M146.2247265625,16.755859375q0-0.7802734375,0.19091796875-1.13720703125t0.5478515625-0.498046875t0.86328125-0.10791015625t1.18701171875,0.033203125q1.7265625,0,3.486328125,0.53125t3.1708984375,1.55224609375t2.2744140625,2.51513671875t0.86328125,3.4365234375q0,1.294921875-0.37353515625,2.44873046875t-1.05419921875,2.158203125t-1.59375,1.83447265625t-2.0087890625,1.4443359375q0.4482421875,0.4482421875,1.162109375,1.58544921875t1.4111328125,2.423828125t1.23681640625,2.49853515625t0.63916015625,1.826171875l-0.19921875,0.298828125q-0.4482421875,0.265625-1.0791015625,0.2822265625q-0.298828125,0-0.7802734375-0.07470703125t-0.6142578125-0.43994140625q-0.6806640625-1.9091796875-1.48583984375-3.9345703125t-1.98388671875-3.65234375l0-0.033203125q-0.4150390625,0.166015625-0.82177734375,0.32373046875t-0.82177734375,0.29052734375q0.1328125,1.8427734375,0.27392578125,3.62744140625t0.14111328125,3.61083984375q0,0.232421875-0.22412109375,0.37353515625t-0.50634765625,0.22412109375t-0.57275390625,0.1162109375t-0.47314453125,0.033203125q-0.166015625,0-0.47314453125-0.033203125t-0.58935546875-0.1162109375t-0.48974609375-0.24072265625t-0.20751953125-0.42333984375q0-1.8427734375-0.0830078125-3.67724609375t-0.1826171875-3.66064453125q-0.5146484375-0.33203125-0.5146484375-0.86328125q0-0.4150390625,0.3984375-0.564453125q-0.19921875-3.5029296875-0.45654296875-6.9892578125t-0.25732421875-7.0224609375z M149.229609375,16.2412109375q0.232421875,3.6025390625,0.52294921875,7.1220703125t0.55615234375,7.1220703125q1.162109375-0.33203125,2.16650390625-1.15380859375t1.73486328125-1.85107421875t1.13720703125-2.2412109375t0.40673828125-2.4072265625q0-1.328125-0.53125-2.54833984375t-1.4111328125-2.13330078125q-0.896484375-0.9130859375-2.05859375-1.427734375q-1.029296875-0.4482421875-2.158203125-0.4482421875l-0.298828125,0z M162.23975585938,30.966796875l0-2.623046875q0-2.72265625,0.09130859375-5.40380859375t0.15771484375-5.40380859375q0-0.5146484375-0.033203125-1.1455078125q-0.0166015625-0.1826171875-0.0166015625-0.3486328125q0-0.4150390625,0.06640625-0.8134765625q0.0830078125-0.53125,0.40673828125-0.9130859375t1.07080078125-0.3818359375q0.6142578125,0,0.93798828125,0.1328125t0.45654296875,0.39013671875t0.1494140625,0.6474609375t0.0166015625,0.90478515625q0,2.755859375-0.06640625,5.5283203125q-0.0498046875,1.8427734375-0.0498046875,3.685546875q0,0.9296875,0.0166015625,1.859375q0.033203125,2.755859375,0.25732421875,5.51171875t0.75537109375,5.4453125q1.66015625-0.06640625,3.3203125-0.166015625t3.3203125-0.099609375q0.166015625,0,0.47314453125,0.033203125t0.6142578125,0.1162109375t0.52294921875,0.2158203125t0.2158203125,0.3818359375q0,0.166015625-0.1494140625,0.2822265625t-0.2822265625,0.1826171875l-0.033203125,0q-0.265625,0.1328125-1.05419921875,0.25732421875t-1.79296875,0.19091796875t-2.1083984375,0.1162109375t-2.0751953125,0.0830078125t-1.68505859375,0.0498046875t-0.8798828125,0.0166015625l-0.1494140625,0q-0.3984375,0-0.896484375-0.1328125q-0.59765625-0.166015625-0.7470703125-0.6474609375q-0.298828125-1.228515625-0.47314453125-2.54833984375t-0.265625-2.68115234375t-0.09130859375-2.72265625z"/><path fill="#" d=""/></svg>
